# xmcd
# 
# Track frame offsets:
#     150
#     19640
#     35199
#     55160
#     71823
#     86279
#     107166
#     123799
#     138762
#     157523
#     178543
#     197808
# 
# Disc length: 2842
# 
# Revision: 1
# Processed by: cddbd v1.5.2PL0 Copyright (c) Steve Scherf et al.
# Submitted via: fre:ac v1.0.31
# 
DISCID=940b180c
DTITLE=Brings - Hay! Hay! Hay!
DYEAR=2007
DGENRE=Folk/Rock
TTITLE0=Bazille
TTITLE1=Su ne Daach
TTITLE2=Rabenschwarzenacht
TTITLE3=Fußball ist unser Leben
TTITLE4=Kumm mit
TTITLE5=Riesenkamell
TTITLE6=Eifel
TTITLE7=Loss dir nix jefalle
TTITLE8=Dunmer ne Jefalle
TTITLE9=Su e Feeling
TTITLE10=Dann jon die Leechter us
TTITLE11=Ungerm Mond von Kölle
EXTD=
EXTT0=
EXTT1=
EXTT2=
EXTT3=
EXTT4=
EXTT5=
EXTT6=
EXTT7=
EXTT8=
EXTT9=
EXTT10=
EXTT11=
PLAYORDER=
